<svg width="400" height="400" viewBox="0 0 400 400" fill="none" xmlns="http://www.w3.org/2000/svg">
<path fill-rule="evenodd" clip-rule="evenodd" d="M196.853 16.105C196.16 16.211 194.647 16.5588 193.491 16.878C192.335 17.1972 189.08 17.852 186.259 18.3331C183.437 18.8142 180.505 19.564 179.744 19.9993C178.982 20.4346 177.669 20.9111 176.825 21.0587C175.982 21.2059 174.84 21.6815 174.289 22.1159C173.737 22.5499 172.51 23.1143 171.563 23.3696C170.615 23.6249 169.594 24.13 169.294 24.4921C168.994 24.8546 167.979 25.5413 167.038 26.0187C166.098 26.496 164.831 27.2862 164.223 27.7753C163.614 28.264 162.495 29.137 161.736 29.7153C159.391 31.5018 153.026 37.9959 151.711 39.9431C151.341 40.4915 150.281 42.029 149.356 43.3601C146.279 47.7893 144.13 51.6563 144.112 52.796C144.107 53.1156 143.741 53.9672 143.298 54.6884C142.856 55.4097 142.287 57.1352 142.034 58.523C141.781 59.9108 141.15 62.2764 140.632 63.7799C139.747 66.344 139.689 67.204 139.689 77.6581C139.689 87.1705 139.792 89.0293 140.391 90.3507C140.777 91.2019 141.408 93.4729 141.794 95.3973C142.428 98.5658 142.852 99.737 145.117 104.573C146.481 107.488 149.798 113.326 150.828 114.626C154.874 119.735 156.287 121.355 159.521 124.59C161.526 126.596 163.94 128.732 164.885 129.337C167.039 130.716 169.742 132.877 169.742 133.22C169.742 133.606 166.359 135.83 164.909 136.398C164.215 136.67 163.097 136.906 162.424 136.924C161.75 136.941 160.426 137.402 159.481 137.948C158.536 138.494 156.927 139.069 155.904 139.226C154.882 139.384 152.77 140.072 151.21 140.757C149.651 141.442 147.934 142.007 147.394 142.012C146.856 142.017 145.563 142.41 144.523 142.886C143.482 143.361 141.307 144.196 139.689 144.742C133.518 146.822 124.311 150.34 123.69 150.856C123.434 151.069 122.398 151.535 121.389 151.891C120.381 152.247 119.262 152.796 118.904 153.111C118.545 153.426 117.647 153.813 116.906 153.97C116.165 154.128 115.097 154.62 114.533 155.065C113.968 155.509 112.588 156.267 111.465 156.747C108.552 157.995 100.563 163.458 96.8414 166.746C95.0971 168.288 92.6415 170.873 91.3843 172.492C90.1271 174.111 88.6598 175.994 88.1235 176.676C87.0953 177.983 85.5263 180.766 83.842 184.268C83.2859 185.424 81.8635 188.354 80.6812 190.778C79.4988 193.202 78.5316 195.459 78.5316 195.792C78.5316 196.125 78.2013 196.763 77.7973 197.209C77.393 197.656 76.6557 199.185 76.1585 200.607C75.2451 203.219 73.6369 207.549 71.6412 212.769C71.0423 214.336 70.2861 216.039 69.9603 216.554C69.6346 217.07 69.1525 218.53 68.8889 219.799C68.6254 221.068 68.126 222.54 67.7793 223.069C67.4321 223.599 66.765 225.575 66.2959 227.459C65.8273 229.344 65.0942 231.571 64.6672 232.409C64.2397 233.246 63.7589 234.68 63.5979 235.595C63.4373 236.509 63.0565 237.655 62.7526 238.142C62.4483 238.629 61.8006 240.707 61.3134 242.76C60.8262 244.813 60.1495 246.917 59.8103 247.435C59.4707 247.954 58.989 249.377 58.7393 250.598C58.4901 251.819 57.847 254.142 57.3102 255.761C55.7949 260.331 55.3116 267.174 56.0139 274.114C56.3763 277.693 56.8962 280.54 57.3964 281.684C57.8377 282.693 58.6342 284.884 59.1664 286.554L60.1344 289.589L59.1399 290.768C58.5931 291.416 56.4746 293.498 54.4323 295.394C52.3899 297.29 50.158 299.557 49.472 300.432C48.786 301.307 47.8495 302.495 47.3914 303.073C46.0737 304.736 44.5899 306.94 43.6921 308.569C43.2373 309.394 42.5782 310.307 42.2273 310.599C41.8763 310.89 41.2845 312.046 40.9125 313.166C40.5405 314.287 39.9714 315.424 39.6481 315.693C39.3249 315.961 38.7592 317.253 38.3914 318.564C38.0232 319.874 37.3712 321.798 36.9421 322.839C36.5129 323.88 35.9535 326.097 35.6983 327.766C35.4436 329.435 34.9518 331.888 34.6059 333.217C33.8077 336.284 33.7959 342.574 34.5836 345.599C34.9174 346.881 35.3209 348.955 35.481 350.209C35.7988 352.701 38.9647 360.598 40.163 361.888C40.575 362.332 41.3853 363.516 41.9633 364.519C43.4433 367.089 48.7486 372.2 52.4479 374.622C54.1687 375.748 55.7975 376.67 56.0673 376.67C56.3367 376.67 57.2245 377.123 58.0395 377.676C58.8545 378.229 60.4622 378.884 61.6118 379.131C62.7618 379.378 64.7189 379.98 65.9614 380.47C68.4783 381.463 77.0542 382.783 85.6772 383.504C93.5146 384.161 306.214 384.167 314.334 383.512C322.939 382.817 331.464 381.469 334.51 380.321C336.013 379.755 338.035 379.16 339.004 378.999C339.973 378.838 340.965 378.467 341.209 378.174C341.452 377.88 342.456 377.286 343.439 376.853C348.456 374.642 356.973 367.381 358.618 363.911C359.01 363.085 359.601 362.139 359.932 361.807C361.029 360.71 363.95 353.382 364.57 350.175C364.905 348.44 365.363 346.169 365.588 345.128C366.205 342.277 366.113 335.937 365.416 333.258C365.076 331.952 364.593 329.594 364.342 328.018C363.8 324.617 361.235 316.763 360.175 315.261C359.764 314.678 359.283 313.732 359.107 313.159C358.93 312.584 357.911 310.826 356.841 309.25C355.771 307.675 354.517 305.781 354.055 305.041C353.593 304.301 352.891 303.319 352.496 302.859C352.102 302.398 351.251 301.347 350.605 300.521C349.959 299.696 347.635 297.342 345.438 295.292C340.146 290.35 339.837 289.935 340.208 288.248C340.372 287.499 340.749 286.317 341.046 285.622C343.151 280.685 343.452 279.492 344.014 273.879C344.34 270.622 344.52 267.295 344.413 266.485C344.306 265.676 344.092 263.499 343.937 261.649C343.782 259.799 343.296 257.338 342.856 256.182C342.416 255.025 341.752 252.756 341.379 251.139C341.006 249.522 340.45 247.815 340.143 247.346C339.835 246.877 339.181 244.793 338.69 242.716C338.197 240.639 337.609 238.713 337.382 238.438C337.154 238.161 336.69 236.743 336.351 235.286C336.01 233.828 335.469 232.232 335.147 231.74C334.824 231.248 334.259 229.639 333.889 228.164C333.52 226.689 332.752 224.417 332.183 223.116C331.613 221.815 331.147 220.32 331.147 219.794C331.147 219.268 330.681 217.872 330.111 216.692C328.687 213.747 326.989 209.46 326.346 207.188C326.052 206.147 325.309 204.236 324.696 202.942C324.083 201.647 323.581 200.302 323.581 199.951C323.581 199.601 323.109 198.617 322.531 197.765C321.953 196.913 321.48 195.994 321.48 195.724C321.48 195.236 318.451 188.636 317.67 187.422C317.447 187.075 317.073 186.308 316.838 185.719C316.604 185.129 316.049 183.993 315.605 183.195C315.16 182.397 314.38 180.893 313.87 179.852C311.772 175.567 303.109 166.191 298.051 162.734C296.09 161.393 293.632 159.665 292.588 158.893C291.545 158.12 289.946 157.225 289.035 156.904C288.124 156.582 286.818 155.92 286.133 155.432C285.448 154.944 284.184 154.353 283.323 154.119C282.463 153.885 281.466 153.434 281.108 153.116C280.749 152.798 279.631 152.247 278.622 151.891C277.613 151.535 276.578 151.069 276.321 150.856C275.566 150.229 264.904 146.22 259.913 144.687C258.069 144.121 256.17 143.401 255.693 143.088C255.215 142.775 253.776 142.301 252.495 142.035C251.214 141.769 249.517 141.203 248.723 140.778C247.93 140.353 246.148 139.76 244.765 139.461C243.381 139.163 241.475 138.477 240.53 137.937C239.585 137.397 238.261 136.941 237.588 136.924C236.915 136.906 235.796 136.67 235.103 136.398C233.652 135.83 230.269 133.606 230.269 133.22C230.269 132.879 232.967 130.719 235.096 129.356C238.233 127.349 247.919 117.087 248.547 115.107C248.697 114.633 248.967 114.246 249.146 114.246C249.476 114.246 252.967 108.627 252.967 108.095C252.967 107.937 253.423 107.208 253.981 106.477C254.539 105.745 255.218 104.308 255.49 103.283C255.763 102.258 256.353 100.819 256.802 100.086C257.251 99.3522 257.882 97.2705 258.204 95.4596C258.526 93.6487 259.135 91.4101 259.556 90.4849C260.236 88.9919 260.322 87.5503 260.32 77.6581C260.318 66.6367 260.305 66.4748 259.164 63.0221C258.53 61.1018 258.005 59.0201 257.998 58.396C257.99 57.7719 257.423 56.1305 256.737 54.7486C256.05 53.3666 255.489 51.9326 255.489 51.5616C255.489 51.1907 254.89 49.9556 254.159 48.8171C253.427 47.6791 252.158 45.7067 251.339 44.4346C250.015 42.3802 248.4 40.1462 246.617 37.9043C243.682 34.2131 236.087 27.6003 232.837 25.9055C231.919 25.4261 230.943 24.7641 230.669 24.434C230.395 24.1039 229.402 23.6266 228.463 23.3734C227.523 23.1202 226.082 22.4562 225.261 21.8981C224.441 21.3404 223.293 20.8829 222.711 20.882C222.129 20.8812 221.042 20.5078 220.295 20.0523C219.499 19.567 216.805 18.863 213.78 18.3503C210.943 17.8696 207.697 17.2043 206.566 16.8717C204.351 16.2211 198.905 15.7909 196.853 16.105ZM191.389 41.4449C190.696 41.624 189.561 42.0597 188.867 42.4126C188.174 42.7658 187.039 43.1872 186.345 43.3491C183.261 44.0695 177.048 47.9062 174.126 50.8946C171.3 53.7838 167.641 58.3729 167.641 59.0256C167.641 59.4058 167.068 60.7318 166.368 61.972C164.604 65.0996 163.32 72.6872 163.552 78.6153C163.747 83.6232 164.903 90.4962 165.775 91.8382C166.109 92.3513 166.773 93.8177 167.251 95.0975C167.73 96.3772 168.274 97.424 168.461 97.424C168.647 97.424 169.052 98.0338 169.361 98.779C170.013 100.354 173.895 104.972 176.978 107.841C178.154 108.935 179.388 110.097 179.72 110.422C180.577 111.263 182.671 112.756 184.874 114.095C185.914 114.728 187.256 115.646 187.855 116.135C188.455 116.624 190.397 117.771 192.17 118.684C193.944 119.597 196.008 120.675 196.755 121.079C198.695 122.128 201.954 122.04 203.789 120.889C204.598 120.382 206.111 119.538 207.151 119.014C208.976 118.094 209.585 117.725 214.111 114.791C218.087 112.213 219.031 111.496 222.05 108.761C225.577 105.565 229.386 101.186 230.672 98.8479C233.929 92.9262 234.91 90.5635 235.537 87.1205C235.874 85.27 236.348 82.8098 236.59 81.6533C237.314 78.1955 235.517 65.0996 233.976 62.6045C233.499 61.834 232.802 60.3718 232.425 59.3553C231.568 57.0427 226.295 50.8761 223.085 48.434C220.398 46.3893 215.608 43.8029 213.666 43.3487C212.973 43.1864 211.649 42.6577 210.724 42.1745C209.207 41.3805 208.245 41.2863 200.846 41.2073C196.338 41.1585 192.083 41.2657 191.389 41.4449ZM196.223 150.737C194.951 151.416 193.069 152.102 192.039 152.262C191.009 152.422 189.591 152.908 188.886 153.341C188.182 153.774 186.4 154.439 184.926 154.819C183.451 155.2 181.841 155.775 181.347 156.099C180.854 156.423 179.412 156.908 178.143 157.177C176.875 157.446 175.156 158.011 174.325 158.432C173.492 158.853 171.546 159.491 170 159.85C168.453 160.208 166.636 160.787 165.964 161.135C165.291 161.484 163.585 162.038 162.173 162.368C160.762 162.697 159.345 163.184 159.024 163.45C158.703 163.717 157.29 164.203 155.882 164.532C154.475 164.86 152.62 165.485 151.76 165.92C150.9 166.355 149.227 166.917 148.042 167.168C146.856 167.42 144.984 168.105 143.881 168.692C142.778 169.278 141.554 169.759 141.16 169.759C140.767 169.759 139.573 170.223 138.507 170.789C137.442 171.356 135.765 172.037 134.782 172.302C133.798 172.567 132.536 173.143 131.978 173.583C131.42 174.022 130.185 174.591 129.235 174.847C128.285 175.103 127.007 175.669 126.396 176.105C125.785 176.54 124.459 177.283 123.45 177.755C121.645 178.598 118.977 180.201 115.581 182.48C113.567 183.83 109.742 187.67 108.702 189.384C107.943 190.635 107.598 191.177 105.805 193.934C105.201 194.863 104.559 196.096 104.379 196.674C104.199 197.252 102.965 199.996 101.637 202.772C100.309 205.548 98.9834 208.576 98.6913 209.501C98.3987 210.426 97.9149 211.561 97.6161 212.024C97.3172 212.487 96.8616 213.811 96.6035 214.968C96.3459 216.124 95.783 217.449 95.3535 217.912C94.9235 218.374 94.4414 219.51 94.2812 220.435C94.1215 221.36 93.6356 222.739 93.2023 223.499C92.7685 224.258 92.0569 226.245 91.6214 227.915C91.1859 229.583 90.4504 231.895 89.9868 233.052C89.0095 235.49 88.11 238.093 86.7158 242.514C85.7423 245.601 84.5528 249.244 83.2826 253.028C82.9333 254.069 82.2141 256.564 81.6849 258.574C81.1557 260.583 80.3945 263.087 79.9931 264.139C78.6098 267.763 79.9666 275.861 82.2759 277.76C83.1586 278.486 87.3345 278.042 89.8304 276.957C90.8434 276.517 92.9059 275.96 94.4141 275.718C95.9222 275.477 98.1381 274.815 99.3382 274.247C100.539 273.679 101.885 273.214 102.331 273.214C102.777 273.214 104.272 272.652 105.653 271.966C107.034 271.279 108.543 270.711 109.005 270.703C109.468 270.695 111.159 270.026 112.764 269.218C114.369 268.409 115.903 267.747 116.174 267.747C116.444 267.747 118.157 266.964 119.981 266.008C121.804 265.051 124.053 263.909 124.978 263.469C125.902 263.029 127.037 262.451 127.5 262.185C127.962 261.918 129.191 261.283 130.232 260.773C131.272 260.262 133.353 259.067 134.855 258.116C136.358 257.165 138.249 256.062 139.059 255.663C139.868 255.265 141.127 254.462 141.858 253.879C142.589 253.295 143.877 252.344 144.721 251.766C146.321 250.669 147.228 249.975 152.96 245.458C156.458 242.702 167.132 232.333 168.691 230.177C169.154 229.538 170.011 228.409 170.597 227.669C171.183 226.928 172.169 225.566 172.789 224.641C173.408 223.715 174.482 222.201 175.175 221.276C177.468 218.213 181.57 210.036 182.609 206.455C182.996 205.123 183.555 203.655 183.853 203.192C184.15 202.73 184.595 201.216 184.843 199.828C185.091 198.44 185.693 195.98 186.181 194.361C186.893 191.999 187.122 189.795 187.338 183.209L187.606 175.001L188.959 172.905C189.702 171.753 190.525 170.621 190.787 170.39C191.048 170.158 191.832 169.406 192.527 168.719C193.645 167.614 194.191 167.433 197.214 167.163C199.139 166.99 201.832 167.041 203.368 167.278C205.654 167.632 206.364 167.955 207.714 169.255C208.601 170.11 209.993 172.123 210.806 173.726L212.284 176.643L212.642 185.502C212.839 190.375 213.186 195.023 213.414 195.833C214.821 200.827 215.915 204.195 216.491 205.295C216.854 205.989 217.375 207.409 217.65 208.449C217.924 209.49 218.574 211.099 219.094 212.024C219.614 212.949 220.294 214.369 220.604 215.178C220.914 215.988 221.513 216.989 221.936 217.402C222.358 217.816 222.703 218.402 222.703 218.704C222.703 219.006 223.102 219.614 223.589 220.054C224.077 220.495 224.934 221.707 225.495 222.748C228.2 227.767 234.66 235.219 240.987 240.618C242.837 242.196 244.728 243.839 245.191 244.27C245.653 244.701 247.068 245.854 248.335 246.833C249.602 247.811 250.964 248.933 251.36 249.326C251.757 249.718 252.689 250.353 253.43 250.737C254.172 251.121 255.161 251.791 255.628 252.227C256.095 252.662 256.822 253.128 257.244 253.262C257.666 253.395 258.011 253.665 258.011 253.861C258.011 254.057 258.815 254.679 259.797 255.242C260.779 255.806 262.813 256.986 264.316 257.865C265.818 258.744 267.899 259.916 268.939 260.468C269.979 261.021 271.303 261.738 271.881 262.061C272.459 262.385 274.774 263.526 277.024 264.597C279.275 265.669 281.217 266.709 281.34 266.908C281.464 267.108 282.601 267.573 283.868 267.941C285.135 268.31 287.051 269.079 288.126 269.651C289.201 270.223 290.461 270.691 290.927 270.691C291.392 270.691 292.577 271.163 293.561 271.739C294.544 272.315 296.357 272.997 297.591 273.253C298.824 273.509 300.269 273.994 300.801 274.332C301.334 274.669 303.183 275.216 304.911 275.547C306.639 275.878 308.604 276.433 309.277 276.782C310.712 277.524 316.226 278.384 317.321 278.037C317.736 277.905 318.579 276.718 319.193 275.4C320.798 271.962 321.113 266.292 319.865 263.321C319.382 262.17 318.698 259.944 318.344 258.373C317.991 256.803 317.442 255.005 317.125 254.378C316.808 253.751 316.323 252.197 316.047 250.925C315.771 249.653 315.19 247.76 314.758 246.719C313.768 244.338 311.99 238.943 311.005 235.336C310.59 233.817 309.953 232.114 309.588 231.551C309.224 230.989 308.638 229.276 308.287 227.746C307.935 226.216 307.275 224.323 306.818 223.54C306.362 222.758 305.858 221.36 305.697 220.435C305.535 219.51 305.06 218.374 304.64 217.912C304.22 217.449 303.666 216.124 303.408 214.968C303.15 213.811 302.698 212.487 302.404 212.024C302.11 211.561 301.535 210.146 301.126 208.878C300.718 207.611 300.048 206.097 299.638 205.514C299.228 204.931 298.751 203.981 298.579 203.403C298.031 201.567 293.96 193.577 292.248 190.977C288.692 185.577 282.137 180.144 275.789 177.334C274.697 176.851 273.513 176.203 273.158 175.894C272.802 175.585 271.755 175.095 270.831 174.805C269.906 174.516 268.853 174.02 268.489 173.704C268.127 173.388 266.729 172.751 265.383 172.287C264.037 171.824 262.715 171.262 262.446 171.038C262.176 170.814 260.865 170.347 259.531 170C258.198 169.652 256.484 168.982 255.722 168.511C254.96 168.04 253.367 167.471 252.182 167.246C250.997 167.021 249.187 166.454 248.16 165.986C247.133 165.518 245.127 164.863 243.704 164.53C242.28 164.198 240.803 163.651 240.42 163.315C240.039 162.979 238.724 162.494 237.499 162.236C236.274 161.979 234.72 161.483 234.048 161.135C233.375 160.787 231.559 160.208 230.012 159.85C228.465 159.491 226.519 158.853 225.687 158.432C224.855 158.011 223.175 157.455 221.954 157.196C220.732 156.937 219.03 156.373 218.171 155.944C217.312 155.515 215.663 154.932 214.507 154.649C213.351 154.366 211.838 153.791 211.144 153.372C210.451 152.951 208.883 152.398 207.661 152.143C206.439 151.887 204.884 151.267 204.206 150.765C203.431 150.192 202.151 149.789 200.754 149.678C198.9 149.531 198.154 149.706 196.223 150.737ZM197.891 230.017C197.438 230.761 197.066 231.513 197.065 231.689C197.062 232.294 192.281 239.362 190.996 240.663C190.287 241.379 188.573 243.52 187.186 245.419C183.149 250.948 174.273 259.577 166.167 265.855C164.375 267.242 162.576 268.687 162.17 269.066C161.764 269.445 159.376 271.094 156.865 272.732C154.354 274.37 151.826 276.068 151.248 276.506C150.67 276.943 149.373 277.72 148.367 278.233C147.36 278.745 145.279 279.964 143.743 280.941C142.207 281.917 140.052 283.054 138.953 283.467C137.855 283.88 136.957 284.322 136.957 284.449C136.957 284.576 137.348 285.314 137.827 286.088C138.457 287.11 139.179 287.623 140.454 287.957C141.42 288.211 142.873 288.864 143.682 289.408C144.491 289.953 145.869 290.528 146.744 290.687C147.618 290.846 148.982 291.416 149.773 291.954C150.565 292.491 151.836 293.111 152.596 293.332C153.358 293.553 155.399 294.506 157.133 295.45C158.866 296.395 160.947 297.469 161.756 297.837C163.799 298.766 169.819 301.776 170.583 302.251C170.93 302.466 172.254 303.125 173.525 303.716C174.797 304.307 176.972 305.43 178.359 306.211C179.746 306.993 181.354 307.836 181.932 308.086C182.51 308.336 183.266 308.734 183.613 308.971C183.96 309.208 185.284 309.873 186.555 310.448C187.827 311.024 189.151 311.687 189.498 311.921C189.844 312.155 190.979 312.727 192.02 313.193C193.06 313.658 194.693 314.442 195.649 314.934C197.865 316.076 199.599 316.071 201.063 314.919C201.7 314.418 202.432 314.008 202.69 314.008C203.095 314.009 213.416 309.101 216.398 307.489C219.41 305.861 224.322 303.494 224.689 303.494C224.919 303.494 225.84 302.997 226.734 302.39C227.628 301.783 229.111 301.021 230.029 300.697C230.947 300.373 231.992 299.842 232.35 299.518C232.708 299.194 233.947 298.611 235.103 298.223C236.259 297.836 237.503 297.254 237.868 296.932C238.233 296.609 238.665 296.344 238.827 296.344C238.99 296.344 240.487 295.682 242.155 294.873C243.823 294.063 245.398 293.401 245.656 293.401C245.914 293.401 246.823 292.926 247.678 292.345C248.533 291.766 250.096 291.097 251.153 290.86C252.21 290.623 253.854 289.976 254.807 289.423C255.76 288.87 257.296 288.279 258.221 288.11C259.831 287.816 262.634 285.626 262.634 284.663C262.634 284.437 261.736 283.837 260.638 283.329C259.54 282.822 257.412 281.675 255.909 280.78C254.406 279.886 252.426 278.739 251.509 278.231C250.591 277.724 249.362 276.988 248.777 276.595C248.191 276.203 245.979 274.715 243.86 273.287C241.742 271.859 239.873 270.691 239.708 270.691C239.543 270.691 238.687 270.076 237.806 269.324C236.926 268.572 234.84 266.916 233.172 265.644C228.596 262.154 221.216 255.438 217.502 251.384C215.682 249.397 214.068 247.676 213.916 247.561C213.765 247.445 212.756 246.12 211.676 244.617C210.596 243.113 209.372 241.527 208.957 241.092C207.474 239.537 203.591 233.877 202.32 231.419C201.782 230.376 200.978 229.583 200.096 229.225C198.753 228.679 198.693 228.701 197.891 230.017ZM97.6564 302.439C97.4253 302.547 94.8394 302.912 91.9102 303.251C88.0377 303.699 86.0302 304.144 84.5545 304.882C83.4381 305.44 81.7883 306.01 80.8884 306.15C79.988 306.29 78.8532 306.768 78.3664 307.213C77.8793 307.658 76.8188 308.356 76.0097 308.765C73.2427 310.162 65.367 318.007 64.2015 320.526C63.7732 321.451 63.0376 322.776 62.5668 323.47C62.0961 324.164 61.508 325.489 61.2609 326.414C61.0137 327.339 60.3252 329.102 59.7313 330.331C58.7141 332.436 58.654 332.922 58.696 338.742C58.7204 342.139 58.9117 345.489 59.1214 346.187C59.7519 348.288 62.555 352.316 63.9005 353.056C64.594 353.438 65.818 354.259 66.62 354.882C67.4258 355.508 69.1487 356.241 70.4681 356.52C71.782 356.798 73.2708 357.278 73.7761 357.588C74.2813 357.897 75.9836 358.332 77.559 358.556C86.7351 359.857 139.532 360.441 178.569 359.674C189.319 359.462 198.493 359.287 198.955 359.285C199.417 359.283 209.064 359.456 220.392 359.67C260.843 360.432 313.431 359.862 322.452 358.562C324.028 358.335 325.73 357.888 326.235 357.568C326.741 357.249 328.146 356.782 329.358 356.53C334.403 355.483 339.487 350.768 340.866 345.856C341.66 343.029 341.493 333.535 340.609 331.25C340.206 330.209 339.473 328.217 338.98 326.823C338.486 325.429 337.69 323.726 337.211 323.038C336.731 322.35 336.107 321.207 335.825 320.497C334.994 318.408 326.732 310.16 324.119 308.81C323.373 308.425 322.07 307.639 321.223 307.064C320.375 306.488 319.282 306.015 318.794 306.013C318.306 306.011 316.867 305.524 315.595 304.931C313.07 303.753 305.126 302.52 299.833 302.484C295.355 302.455 286.317 303.74 283.02 304.876C281.402 305.433 279.388 306.018 278.544 306.175C277.701 306.331 276.533 306.836 275.95 307.294C275.367 307.754 273.9 308.317 272.691 308.546C271.481 308.776 269.906 309.263 269.19 309.628C268.474 309.993 266.47 310.823 264.736 311.472C260.48 313.063 256.929 314.6 256.255 315.141C255.949 315.386 255.226 315.728 254.648 315.901C254.07 316.074 252.557 316.759 251.285 317.423C250.014 318.088 248.785 318.632 248.553 318.632C248.322 318.633 246.998 319.179 245.611 319.846C244.224 320.513 242.427 321.371 241.618 321.752C240.809 322.133 239.674 322.715 239.096 323.044C238.518 323.373 237.478 323.9 236.784 324.214C236.091 324.529 235.145 324.991 234.683 325.241C234.22 325.49 231.194 326.962 227.957 328.512C224.721 330.062 221.6 331.582 221.022 331.89C220.444 332.197 218.174 333.331 215.978 334.41C199.762 342.376 199.616 342.434 197.141 341.989C195.879 341.762 189.171 338.706 186.555 337.165C186.209 336.961 184.222 336.002 182.142 335.035C180.061 334.068 178.075 333.115 177.728 332.918C177.382 332.721 173.977 330.963 170.163 329.01C166.348 327.057 162.66 325.155 161.966 324.782C161.273 324.409 160.043 323.816 159.234 323.464C158.425 323.112 157.29 322.549 156.712 322.213C156.134 321.876 154.81 321.222 153.77 320.759C152.73 320.295 151.595 319.727 151.248 319.495C150.901 319.264 149.955 318.783 149.146 318.426C148.337 318.069 147.202 317.515 146.624 317.193C143.882 315.668 133.669 311.064 133.022 311.062C132.759 311.061 131.409 310.494 130.022 309.802C128.634 309.11 127.197 308.543 126.827 308.542C126.456 308.541 125.274 308.072 124.198 307.5C123.123 306.928 121.137 306.173 119.785 305.823C118.433 305.472 116.601 304.882 115.712 304.511C113.414 303.549 98.8527 301.879 97.6564 302.439Z" fill="#899095"/>
</svg>
